<?xml version="1.0" encoding="UTF-8"?>
<svg viewBox="0 0 24 20" id="icons-twitter">
  <path fill="currentColor" d="M23.34,0.37c-0.95,0.58-2,1-3.13,1.22C19.31,0.61,18.03,0,16.62,0c-2.72,0-4.92,2.26-4.92,5.05 c0,0.4,0.04,0.78,0.13,1.15C7.73,5.99,4.1,3.98,1.67,0.92C1.25,1.67,1,2.54,1,3.46c0,1.75,0.87,3.3,2.19,4.2 C2.39,7.64,1.63,7.41,0.96,7.04V7.1c0,2.45,1.7,4.49,3.95,4.95c-0.41,0.12-0.85,0.18-1.3,0.18c-0.32,0-0.63-0.03-0.93-0.09 c0.63,2.01,2.44,3.47,4.6,3.5C5.61,17,3.48,17.8,1.17,17.8c-0.4,0-0.79-0.02-1.17-0.07C2.18,19.16,4.77,20,7.55,20 c9.06,0,14.01-7.69,14.01-14.36c0-0.22,0-0.44-0.01-0.65c0.96-0.71,1.8-1.6,2.45-2.61c-0.88,0.4-1.83,0.67-2.83,0.79 C22.19,2.54,22.97,1.55,23.34,0.37" />
</svg>