<?xml version="1.0" encoding="UTF-8"?>
<svg width="11px" height="16px" viewBox="0 0 11 16" version="1.1" xmlns="http://www.w3.org/2000/svg" xmlns:xlink="http://www.w3.org/1999/xlink">
    <!-- Generator: sketchtool 48.2 (47327) - http://www.bohemiancoding.com/sketch -->
    <title>0FD74340-AAF0-4379-BE68-DB3AB5A91890</title>
    <desc>Created with sketchtool.</desc>
    <defs></defs>
    <g id="2-Icons" stroke="none" stroke-width="1" fill="none" fill-rule="evenodd" transform="translate(-430.000000, -350.000000)">
        <g id="Icon-/-Arrow-/-Blue-Copy" transform="translate(435.500000, 358.000000) rotate(90.000000) translate(-435.500000, -358.000000) translate(428.000000, 353.000000)" fill="#414141" fill-rule="nonzero">
            <path d="M11.7133853,6.00000412 L1.03082775,6.00000409 C0.461517303,6.00000408 -1.63388456e-09,5.55229018 0,5.0000071 C1.63388456e-09,4.44772402 0.461517309,4.00001012 1.03082776,4.00001012 L11.6918372,4.00001015 L9.64561911,1.64441038 C9.27875937,1.22208261 9.33428047,0.591214549 9.76962897,0.235327121 C10.2049775,-0.120560307 10.8552957,-0.0666997708 11.2221555,0.355627996 L14.7574398,4.42543598 C15.0895592,4.80777081 15.0795483,5.36930935 14.7339994,5.74027485 L11.0731053,9.67044273 C10.6914113,10.0802119 10.0395621,10.1122258 9.61715938,9.7419478 C9.19475665,9.37166977 9.16175573,8.73931656 9.54344975,8.32954738 L11.7133853,6.00000412 Z" id="Combined-Shape"></path>
        </g>
    </g>
</svg>